<?xml version="1.0" encoding="utf-8"?>
<!-- Generator: Adobe Illustrator 22.0.1, SVG Export Plug-In . SVG Version: 6.00 Build 0)  -->
<svg version="1.0" id="Layer_1" xmlns="http://www.w3.org/2000/svg" xmlns:xlink="http://www.w3.org/1999/xlink" x="0px" y="0px"
	 viewBox="0 0 472.4 149.6" enable-background="new 0 0 472.4 149.6" xml:space="preserve">
<g>
	<g>
		<path fill="#1EDD88" d="M57.8,28.7C25.9,28.7,0,52.4,0,81.6s25.9,52.9,57.8,52.9c31.9,0,57.8-23.7,57.8-52.9S89.8,28.7,57.8,28.7z
			 M82.8,88.6H63.7l-4.2-6.8c-0.8-1.3-2.6-1.3-3.4,0L52,88.6H32.9c-4.4,0-8.3-1.8-11.2-4.6c-2.9-2.9-4.6-6.8-4.6-11.2
			c0-8.8,7.1-15.9,15.9-15.9h49.9c4.4,0,8.3,1.8,11.2,4.6c2.9,2.9,4.6,6.8,4.6,11.2C98.7,81.5,91.6,88.6,82.8,88.6z"/>
		<path fill="#1EDD88" d="M46.3,67.6H29.5c-1,0-1.8,1-1.6,2c0.9,4.7,5.1,8.2,10,8.2c5,0,9.1-3.5,10-8.2
			C48.1,68.6,47.4,67.6,46.3,67.6z"/>
		<path fill="#1EDD88" d="M86.2,67.6H69.4c-1,0-1.8,1-1.6,2c0.9,4.7,5.1,8.2,10,8.2c5,0,9.1-3.5,10-8.2C88,68.6,87.2,67.6,86.2,67.6
			z"/>
		<g>
			<path fill="#00C466" d="M17,72.7c0,4.4,1.8,8.3,4.6,11.2c2.9,2.9,6.8,4.6,11.2,4.6H52l4.2-6.8c0.4-0.6,1.1-1,1.7-1v53.7
				C25.9,134.5,0,110.8,0,81.6s25.9-52.9,57.8-52.9v28.2H32.9C24.1,56.9,17,64,17,72.7z"/>
			<g>
				<path fill="#00C466" d="M46.3,67.6H29.5c-1,0-1.8,1-1.6,2c0.9,4.7,5.1,8.2,10,8.2c5,0,9.1-3.5,10-8.2
					C48.1,68.6,47.4,67.6,46.3,67.6z"/>
			</g>
		</g>
		<path fill="#1EDD88" d="M103.6,40.7c0,0,25.5-7.2,32.4-2c0,0-23.9,1.5-29.5,7.6c0,0,24.5,19.9,52.2-10.7
			C158.7,35.7,128.8,3.9,103.6,40.7z"/>
		<path fill="#1EDD88" d="M98.3,38.2c0,0,0.2-18.7,5.1-22.3c0,0-3.8,16.5-0.7,21.4c0,0,18.4-12.6,3.2-37.4
			C106,0,78.5,13.9,98.3,38.2z"/>
	</g>
	<g>
		<g>
			<g>
				<g>
					<path d="M233.4,91.5c0,21.1-15.5,35.4-34.7,35.4c-7.2,0-14.3-2-19.9-5.4v4.3h-17.5V30.7l17.5,5.2v25.4
						c5.8-3.2,12.6-5.2,19.9-5.2C217.9,56,233.4,70,233.4,91.5z M216.2,91.5c0-11.2-8.7-19.7-20.6-19.7c-6.7,0-12.5,2.3-16.8,5.8
						v27.5c4.3,3.7,10.2,5.9,16.8,5.9C207.5,111,216.2,103.1,216.2,91.5z"/>
					<path d="M238,57.3h17.5v68.5H238V57.3z"/>
					<path d="M326.5,87.6v38.2H309V87.6c0-10.6-5.2-15.8-14.9-15.8c-6.2,0-11.2,2-15.1,5.4v48.6h-17.5V57.3H279v4.3
						c5-3.5,11.4-5.5,18.3-5.5C317.3,56,326.5,65.4,326.5,87.6z"/>
					<path d="M379.5,57.3v14.5h12.2c0.4,0,0.5,0.5,0.1,0.6l-12.3,5.4v41.4c0,11.6-2,15.4-11.1,15.4c-0.8,0-1.5-0.1-2.3-0.1v14.1
						c2.5,0.5,5.9,1,10.3,1c11.4,0,20.7-7.3,20.7-21.6V57.3H379.5z"/>
					<path d="M472.4,57.3v68.5h-17.5v-5c-5.7,3.8-12.5,6.1-20.1,6.1c-21.4,0-34.1-17.3-34.1-35.4c0-18.3,12.6-35.4,34.1-35.4
						c7.2,0,14.3,2.3,20.1,5.7v-4.3H472.4z M454.9,77.7c-4.3-3.7-10.3-5.9-16.9-5.9c-12.5,0-20.3,9.3-20.3,19.5
						c0,10.3,7.9,19.7,20.3,19.7c6.7,0,12.6-2.1,16.9-5.8V77.7z"/>
				</g>
			</g>
			<g>
				<path d="M355.7,71.8V96c0,12.2,2,15.8,10.8,15.8c3,0,5.7-0.4,8.1-0.6v13.1c-0.8,0.3-6.1,2.5-15.9,2.5
					c-11.5,0-20.7-7.2-20.7-21.6V71.8h-9.7V57.3h9.7V30.7h17.7v26.6h19.2v14.5H355.7z"/>
			</g>
		</g>
		<circle cx="246.8" cy="41.7" r="11"/>
	</g>
</g>
</svg>
